<svg xmlns="http://www.w3.org/2000/svg" width="512" height="480" viewBox="0 0 512 480">
  <path id="briefcase-medical-solid" d="M464,96H384V48A48.012,48.012,0,0,0,336,0H176a48.012,48.012,0,0,0-48,48V96H48A48.012,48.012,0,0,0,0,144V432a48.012,48.012,0,0,0,48,48H464a48.012,48.012,0,0,0,48-48V144A48.012,48.012,0,0,0,464,96ZM176,48H336V96H176ZM368,314a16,16,0,0,1-16,16H298v54c0,8.836-7.164,16-15.1,16h-52a16,16,0,0,1-16-16V330.9H160a16,16,0,0,1-16-16v-52a16,16,0,0,1,16-16h53.1V192a16,16,0,0,1,16-16h52c8.836,0,15.1,7.162,15.1,16v54H352a16,16,0,0,1,16,16Z" fill="#fff"/>
</svg>
