<svg xmlns="http://www.w3.org/2000/svg" width="511.866" height="512" viewBox="0 0 511.866 512">
  <path id="head-side-brain-solid_1_" data-name="head-side-brain-solid(1)" d="M159.9,178.9l.1-2.9c0,1-.1,1.9-.1,2.9ZM509.2,275c-21-47.12-48.5-151.8-73.12-186.8A207.94,207.94,0,0,0,266.1,0H192C86,0,0,86,0,192A191.638,191.638,0,0,0,64,334.9V512H320l-.005-64h63.99a63,63,0,0,0,63.1-63.1V320h31.1a31.768,31.768,0,0,0,26.77-14.62C512.8,296.4,513.6,284.9,509.2,275ZM336,208H285a43.792,43.792,0,0,1,3,16,48.012,48.012,0,0,1-48,48,43.772,43.772,0,0,1-16-3v51H160V269a43.694,43.694,0,0,1-16,3,48.012,48.012,0,0,1-48-48c0-1,.25-1.875.25-2.875A47.866,47.866,0,0,1,112,128a48.012,48.012,0,0,1,48-48,47.01,47.01,0,0,1,23.5,6.375,47.838,47.838,0,0,1,81,0A47.284,47.284,0,0,1,333,112h3a48,48,0,0,1,0,96Z" fill="#fff"/>
</svg>
