<svg xmlns="http://www.w3.org/2000/svg" width="512" height="512" viewBox="0 0 512 512">
  <path id="sack-dollar-solid" d="M320,96H192L144.6,24.88A15.988,15.988,0,0,1,157.9,0H354.1a15.988,15.988,0,0,1,13.3,24.88ZM192,128H320c3.8,2.5,8.1,5.3,12.1,8.4C389.7,172.7,512,250.9,512,416a96.025,96.025,0,0,1-96,96H96A96.012,96.012,0,0,1,0,416C0,250.9,122.3,172.7,179,136.4c4.9-3.1,9.2-5.9,13-8.4Zm84.1,96c0-11.1-9-20.1-21-20.1-10.2,0-19.2,9-19.2,20.1v6c-5.6,1.2-11.8,2.9-15.9,5.1-14.9,6.8-27.9,19.4-31.1,37.7-1.8,10.2-.8,20.1,3.4,29a49.492,49.492,0,0,0,17.3,19.5c11.6,7.9,26.9,12.5,38.6,16l2.2.6c14,4.3,23.4,7.4,29.3,11.7,2.5,1.8,3.4,3.2,3.7,4.1.4.8,1,2.6.3,6.6-.6,3.5-2.5,6.5-8,8.8-6.1,2.6-16,3.9-28.8,1.9-6-1-16.7-4.6-26.2-7.8-2.2-.8-4.4-1.5-6.4-2.2A20,20,0,0,0,189,373.7c-3.5,10.5,2.2,21.8,12.7,24.4a9.963,9.963,0,0,0,4.4,2.4,267.265,267.265,0,0,0,29.8,9.1V416c0,11.1,9,20.1,19.2,20.1,12,0,21-9,21-20.1v-5.5c5.3-1,10.5-3.4,15.3-4.6,15.8-6.7,28.4-19.7,31.7-38.7,1.8-10.4,1-20.4-3-29.5a49.2,49.2,0,0,0-16.9-20.4c-12.1-8.9-28.3-13.7-40.4-17.4l-1.7-.2c-13.3-4.3-22.9-7.3-29-11.5-2.6-1.8-3.4-3-3.6-3.5-.2-.4-.8-1.6-.2-5,.4-2,1.9-5.3,8.2-8.1,5.6-2.9,16.4-4.5,28.6-3.5,4.4,1.6,17.9,4.2,21.8,5.2a19.962,19.962,0,0,0,10.2-38.6c-4.4-1.2-14.4-3.2-21-4.4Z" fill="#fff"/>
</svg>
